<svg width="24" height="24" viewBox="0 0 24 24" fill="none" xmlns="http://www.w3.org/2000/svg">
<g id="status / attention">
<circle id="Oval" cx="12" cy="12" r="12" fill="#FF0074"/>
<path id="Combined Shape" fill-rule="evenodd" clip-rule="evenodd" d="M11.0004 9.5L11.3394 13H12.6474L13.0004 9.5V7H11.0004V9.5ZM12 16.9995C12.275 16.9995 12.512 16.9015 12.707 16.7065C12.902 16.5115 13 16.2755 13 15.9995C13 15.7245 12.902 15.4885 12.707 15.2925C12.512 15.0975 12.275 14.9995 12 14.9995C11.716 14.9995 11.478 15.0975 11.287 15.2925C11.095 15.4885 11 15.7245 11 15.9995C11 16.2755 11.098 16.5115 11.293 16.7065C11.489 16.9015 11.725 16.9995 12 16.9995Z" fill="white"/>
</g>
</svg>
