<svg width="32" height="32" viewBox="0 0 32 32" fill="none" xmlns="http://www.w3.org/2000/svg">
<path fill-rule="evenodd" clip-rule="evenodd" d="M1.43479 0H30.5652C31.3577 0 32 0.642319 32 1.43479V30.5654C32 31.3577 31.3577 32 30.5652 32H1.43479C0.642319 32 0 31.3577 0 30.5654V1.43479C0 0.642319 0.642319 0 1.43479 0ZM28.5625 5.71908V7.20649H20.528V8.46566H26.2392V14.5242H24.7395V9.97217H20.5074C20.5702 11.8356 19.9043 13.3629 18.5267 14.514L18.4038 14.6167L17.4121 13.6268L17.5214 13.5032C17.629 13.3815 17.739 13.2629 17.8488 13.1447C18.0905 12.8846 18.3185 12.639 18.5148 12.367C18.9536 11.7585 19.1472 11.0264 19.1427 9.99294C19.1365 8.52716 19.135 7.0612 19.1336 5.59541L19.1316 3.21315L19.3104 3.21667C19.4408 3.21946 19.572 3.21199 19.699 3.20477L19.7077 3.20427C20.002 3.18718 20.2802 3.17109 20.5268 3.27314L20.6517 3.32476L20.6338 3.45865C20.6168 3.58383 20.5989 3.70013 20.5818 3.81023L20.5816 3.81166C20.547 4.03426 20.5171 4.22656 20.5096 4.41719C20.4965 4.7501 20.4991 5.07907 20.502 5.42702V5.42709V5.42716V5.42724V5.42731L20.502 5.43772L20.5027 5.52584C20.5032 5.58723 20.5037 5.64885 20.5041 5.71071H23.3151V2.70607H23.4904C23.6133 2.70607 23.7324 2.70473 23.8489 2.70338L23.8642 2.70323C24.1338 2.70043 24.3888 2.69779 24.647 2.71193C24.8942 2.7255 24.9785 2.84549 25.0067 2.91587C25.041 3.00167 25.0474 3.14093 24.8821 3.31722C24.8481 3.35341 24.8324 3.38324 24.8304 3.39196C24.8259 4.04444 24.8262 4.70543 24.8265 5.38292V5.38315V5.38339V5.38362V5.38385V5.38728V5.71908H28.5625ZM14.4784 13.5032C14.3707 13.3814 14.2606 13.2626 14.1506 13.1445L14.1488 13.1425C13.9082 12.8833 13.6808 12.6384 13.4852 12.3671C13.0463 11.7586 12.8526 11.0265 12.8571 9.99302C12.8635 8.51483 12.8648 7.03647 12.8662 5.55812L12.8682 3.21322L12.6894 3.21674C12.5557 3.21926 12.4218 3.21171 12.2922 3.20434C11.9975 3.18708 11.7196 3.17099 11.4729 3.27322L11.3481 3.32483L11.3662 3.45872C11.3827 3.58198 11.4005 3.69662 11.4174 3.80521L11.4181 3.8103L11.419 3.81603C11.4532 4.03681 11.4827 4.22786 11.4902 4.41726C11.5036 4.75342 11.5008 5.08572 11.4977 5.43746C11.4971 5.52812 11.4964 5.61911 11.4959 5.71078H8.68464V2.70597H8.50936C8.38669 2.70597 8.26755 2.7048 8.15091 2.70346C7.87575 2.70044 7.61567 2.69759 7.35292 2.712C7.10557 2.72558 7.02145 2.84539 6.9933 2.91578C6.95878 3.00157 6.95241 3.141 7.11781 3.31729C7.14332 3.34443 7.15846 3.36791 7.16508 3.37816L7.16508 3.37816L7.16509 3.37817C7.16729 3.38158 7.16854 3.38352 7.16892 3.38365C7.1741 4.04491 7.17378 4.70634 7.17344 5.38429V5.38431V5.38433V5.38434L7.17344 5.38736L7.17327 5.71916H3.4375V7.20656H11.4721V8.46573H5.76078V14.5243H7.26041V9.97224H11.4924C11.4297 11.8357 12.0955 13.363 13.4731 14.5141L13.596 14.6168L14.5877 13.6269L14.4784 13.5032ZM28.5625 24.7929V26.2803H24.8265V26.6119V26.615V26.6152V26.6155C24.8262 27.2934 24.8259 27.9545 24.831 28.6159C24.8314 28.616 24.8327 28.618 24.8349 28.6215C24.8416 28.6317 24.8568 28.6552 24.8821 28.6821C25.0474 28.8584 25.041 28.9978 25.0067 29.0836C24.9783 29.1539 24.8942 29.274 24.6469 29.2874C24.4929 29.296 24.3395 29.2985 24.1835 29.2985C24.0882 29.2985 23.9917 29.2975 23.8935 29.2964L23.8497 29.296C23.7329 29.2946 23.6136 29.2933 23.4904 29.2933H23.3151V26.2888H20.5041C20.5037 26.3505 20.5032 26.4118 20.5027 26.473V26.4733L20.502 26.5616L20.502 26.572V26.5721V26.5722C20.4991 26.9202 20.4965 27.2492 20.5096 27.5823C20.5171 27.7716 20.5467 27.9628 20.5808 28.1837L20.5809 28.1837L20.5816 28.1888C20.5989 28.2991 20.6168 28.4154 20.6338 28.5409L20.6517 28.6748L20.5268 28.7262C20.28 28.8281 20.002 28.8122 19.7072 28.7951L19.6978 28.7945L19.6978 28.7945C19.5714 28.7872 19.4414 28.7796 19.3104 28.7825L19.1316 28.786L19.1336 26.4039C19.135 24.9381 19.1365 23.4722 19.1427 22.0062C19.1472 20.9731 18.9536 20.2408 18.5148 19.6324C18.3185 19.3604 18.0905 19.1147 17.8488 18.8546L17.8474 18.8531L17.8473 18.853C17.7381 18.7354 17.6285 18.6175 17.5214 18.4962L17.4121 18.3727L18.4038 17.3828L18.5267 17.4855C19.9043 18.6364 20.5702 20.1637 20.5074 22.027H24.7395V17.4751H26.2392V23.5337H20.528V24.7929H28.5625ZM17.1036 15.9999C17.1036 15.391 16.6099 14.8973 16.0009 14.8973C15.3921 14.8973 14.8984 15.391 14.8984 15.9999C14.8984 16.6089 15.3921 17.1024 16.0009 17.1024C16.6099 17.1024 17.1036 16.6089 17.1036 15.9999ZM11.4924 22.0272C11.4297 20.1639 12.0955 18.6366 13.4731 17.4855L13.596 17.3828L14.5877 18.3727L14.4784 18.4964C14.3707 18.6182 14.2606 18.737 14.1506 18.8551L14.1488 18.8571C13.9082 19.1163 13.6808 19.3612 13.4852 19.6325C13.0463 20.241 12.8526 20.9731 12.8571 22.0064C12.8635 23.4848 12.8648 24.963 12.8662 26.4413L12.8683 28.4474L12.8682 28.7862L12.6894 28.7825C12.5562 28.7803 12.4223 28.7877 12.2926 28.7951C11.998 28.8123 11.7198 28.8283 11.4729 28.7262L11.3481 28.6748L11.3662 28.541C11.3827 28.4175 11.4005 28.3028 11.4173 28.194L11.4181 28.1888C11.4528 27.9657 11.4827 27.7732 11.4902 27.5823C11.5036 27.246 11.5008 26.9139 11.4977 26.5621V26.562C11.4971 26.4713 11.4964 26.3803 11.4959 26.2888H8.68464V29.2935H8.50936C8.38636 29.2935 8.26704 29.2948 8.15024 29.2961C8.12607 29.2963 8.102 29.2966 8.07804 29.2968C7.98957 29.2977 7.9025 29.2985 7.81626 29.2985C7.66025 29.2985 7.50709 29.2961 7.35292 29.2876C7.10574 29.2742 7.02145 29.1542 6.9933 29.0838C6.95878 28.9978 6.95241 28.8586 7.11764 28.6821C7.15182 28.6459 7.16741 28.6163 7.16975 28.6076C7.1741 27.9547 7.17378 27.2936 7.17344 26.6157L7.17344 26.6121L7.17327 26.2803H3.4375V24.7929H11.4721V23.5339H5.76078V17.4751H7.26041V22.0272H11.4924Z" fill="white"/>
</svg>
